<svg xmlns="http://www.w3.org/2000/svg" viewBox="0 0 1729.19 1060.87"><defs><style>.cls-1{fill:#FFFFFF;}.cls-2{fill:#CEB5A7;}</style></defs><g id="Calque_2" data-name="Calque 2"><g id="Calque_1-2" data-name="Calque 1"><path class="cls-1" d="M288.75,334H0v-4.54a98.56,98.56,0,0,0,21.94-5.91A44.85,44.85,0,0,0,38.69,312.2a20.18,20.18,0,0,0,3.77-7.95q1.42-5.22,2.6-12.05a135.75,135.75,0,0,0,1.65-14.31q.47-7.5.47-14.77c0-4.24.07-10,.24-17.27s.3-15.22.47-23.86.24-17.49.24-26.58v-115c0-5.45-.09-11.05-.24-16.81s-.47-11.2-1-16.36A83.48,83.48,0,0,0,44.59,33.4q-1.67-6.13-4.49-8.86Q33,17.28,25,15.22A204,204,0,0,0,4.24,11.36V6.82H264.69l32.08,75-4.72,2.27q-38.22-45.88-71.71-61.8-8-3.63-29.73-6.37t-52.84-2.72q-9.92,0-20.52.68a140.22,140.22,0,0,0-15.34,1.59q-.94,7.28-1.65,30t-.71,52.72v29.08q0,11.82.24,19.32c.15,5,.24,8.86.24,11.59v5h9.43q7.08,0,16.28-.45t18.4-1.14a109.1,109.1,0,0,0,15.33-2q14.16-3.18,23.59-8.64A51.22,51.22,0,0,0,198.4,137.7a63.42,63.42,0,0,0,9.43-18,209.3,209.3,0,0,0,6.37-22.95h5.67V239.94H214.2a152,152,0,0,0-11.56-30q-7.78-15.45-16.27-23.18a63.55,63.55,0,0,0-18.17-10.45,84.17,84.17,0,0,0-24.77-5q-7.08-.45-11.79-.68t-9.44-.23H100.5a135.15,135.15,0,0,0-1,18.64v54.53q0,7.28.24,13.86c.15,4.4.24,8.11.24,11.13q.45,14.55,1.64,27.5t5.43,19.31q4.25,6.38,20.29,9.09a208.42,208.42,0,0,0,34.91,2.73q8,0,20.53-.46T209,324.47a106.63,106.63,0,0,0,27.84-7,98.34,98.34,0,0,0,24.53-14.77,152.75,152.75,0,0,0,22.89-23.41,312,312,0,0,0,22.88-33.4l5.19,1.36Z"/><path class="cls-1" d="M653.46,112.25a150.47,150.47,0,0,0-18.4-40.9,146.85,146.85,0,0,0-29-33.18A133.85,133.85,0,0,0,568.3,15.9a121.8,121.8,0,0,0-44.59-8.17q-32.55,0-58,14.08A132.42,132.42,0,0,0,423,59.08a174.79,174.79,0,0,0-26.42,52.49,199.63,199.63,0,0,0-9.2,60.21A190.43,190.43,0,0,0,397,233.13q9.66,28.62,27.6,49.76A130.36,130.36,0,0,0,468,316.29q25.47,12.27,56.62,12.27a122.28,122.28,0,0,0,46-8.63,139.86,139.86,0,0,0,38.22-22.73,138.37,138.37,0,0,0,28.3-32.49A118.29,118.29,0,0,0,653,226.76h5.66l-1.41,100h-5.67a138.1,138.1,0,0,0-11.79-14.09c-4.09-4.23-6.92-6.36-8.49-6.36q-1,0-8.5,4.77t-21.7,10.45a210.25,210.25,0,0,1-34.44,10q-20.29,4.32-46.71,4.32-43.89,0-79.27-12t-60.15-34.08a148,148,0,0,1-38-52.72q-13.21-30.68-13.21-67.48a167.19,167.19,0,0,1,1.17-18.64,159.23,159.23,0,0,1,4.25-22.26,182.63,182.63,0,0,1,8.49-24.77,169.55,169.55,0,0,1,13.92-26.13,164.78,164.78,0,0,1,24.53-29.54A156,156,0,0,1,416.14,23.4,196.86,196.86,0,0,1,461,6.36Q486,0,517.11,0q28.3,0,49.54,5T602,15.9q14.16,5.93,21.71,10.91t8.49,5q.94,0,3.54-2c1.72-1.37,3.61-3,5.66-5s4.17-4.24,6.37-6.82A97.43,97.43,0,0,0,653.93,10h5.19V111.79Z"/><path class="cls-1" d="M1035.63,235.4A168.88,168.88,0,0,1,940.56,324a197.82,197.82,0,0,1-136.6.23,171,171,0,0,1-56.14-34.08,160.45,160.45,0,0,1-38-52.71Q695.92,206.76,695.92,170q0-39.08,14.63-70.21A158.08,158.08,0,0,1,749.94,47q24.78-21.58,58-33.18A211.29,211.29,0,0,1,878,2.27q40.1,0,72,13.63t54,36.59a159.31,159.31,0,0,1,34,52.94,170.12,170.12,0,0,1,11.79,62.71Q1049.78,204.5,1035.63,235.4ZM984,112.7a173.76,173.76,0,0,0-22.17-51.13,124,124,0,0,0-37-37.26Q902.57,10,872.38,10q-30.68,0-53.08,14.31a118.72,118.72,0,0,0-36.8,37,167.88,167.88,0,0,0-21.24,51.58,252.31,252.31,0,0,0-6.83,58.39A232.54,232.54,0,0,0,762,230.85q7.54,28.64,22.41,50.45a115.45,115.45,0,0,0,37.28,35q22.4,13.18,52.13,13.18t51.67-14.54A124.76,124.76,0,0,0,962,277.43,176.55,176.55,0,0,0,984,225.86a230.89,230.89,0,0,0,7.32-57.26A222.11,222.11,0,0,0,984,112.7Z"/><path class="cls-1" d="M1382.41,334H1079.5v-4.54a128.42,128.42,0,0,0,23.36-5.91q11.55-4.08,18.16-11.36a22.61,22.61,0,0,0,4-7.95,73.82,73.82,0,0,0,2.6-12.05q.94-6.81,1.65-14.31t.71-14.77q0-6.36.23-17.27t.47-23.86q.24-12.94.24-26.58V65q0-8.18-.71-15.22a83.71,83.71,0,0,0-2.12-12.5,20.59,20.59,0,0,0-4.24-8.63,41.8,41.8,0,0,0-17.7-11.82,99.14,99.14,0,0,0-23.35-5.45V6.82h150.51v4.54q-6.15.92-14.63,2.73a59.87,59.87,0,0,0-16,5.9,38.84,38.84,0,0,0-13,11.59q-5.43,7.5-5.89,19.77-.48,15.92-.71,29.08t-.48,25.91q-.24,12.72-.23,26.36v82.7q0,11.83.23,24.32t.24,28q.47,14.55,1.18,27.72t5,19.54q1.89,2.28,7.55,4.54a76.53,76.53,0,0,0,13.69,3.86q8,1.6,17.45,2.73a157.21,157.21,0,0,0,18.88,1.14q3.77,0,12-.23t18.16-.91q9.91-.68,20.29-2.05a128.29,128.29,0,0,0,18.4-3.63q18.87-5,31.38-13.18a97.24,97.24,0,0,0,21.46-18.86,113.76,113.76,0,0,0,15.1-23.17q6.14-12.5,11.8-26.13l4.71,1.36Z"/><path class="cls-1" d="M1705.6,334H1416.85v-4.54a98.56,98.56,0,0,0,21.94-5.91,44.85,44.85,0,0,0,16.75-11.36,20.18,20.18,0,0,0,3.77-7.95q1.43-5.22,2.6-12.05a135.75,135.75,0,0,0,1.65-14.31q.46-7.5.47-14.77c0-4.24.07-10,.24-17.27s.3-15.22.47-23.86.24-17.49.24-26.58v-115c0-5.45-.09-11.05-.24-16.81s-.47-11.2-1-16.36a83.48,83.48,0,0,0-2.35-13.86q-1.67-6.13-4.49-8.86-7.08-7.26-15.09-9.32a204,204,0,0,0-20.77-3.86V6.82h260.45l32.08,75-4.72,2.27q-38.22-45.88-71.71-61.8-8-3.63-29.73-6.37t-52.84-2.72q-9.91,0-20.52.68a140.22,140.22,0,0,0-15.34,1.59q-.94,7.28-1.65,30t-.71,52.72v29.08q0,11.82.24,19.32c.15,5,.24,8.86.24,11.59v5h9.43q7.08,0,16.28-.45t18.4-1.14a109.1,109.1,0,0,0,15.33-2q14.16-3.18,23.59-8.64a51.22,51.22,0,0,0,15.34-13.17,63.42,63.42,0,0,0,9.43-18,209.3,209.3,0,0,0,6.37-22.95h5.67V239.94h-5.67a152,152,0,0,0-11.56-30q-7.79-15.45-16.27-23.18a63.55,63.55,0,0,0-18.17-10.45,84.17,84.17,0,0,0-24.77-5q-7.08-.45-11.79-.68t-9.44-.23h-21.7a135.15,135.15,0,0,0-.95,18.64v54.53q0,7.28.24,13.86c.15,4.4.24,8.11.24,11.13q.45,14.55,1.64,27.5t5.43,19.31q4.24,6.38,20.29,9.09a208.42,208.42,0,0,0,34.91,2.73q8,0,20.53-.46t26.18-2.27a106.63,106.63,0,0,0,27.84-7,98.34,98.34,0,0,0,24.53-14.77,152.75,152.75,0,0,0,22.89-23.41,312,312,0,0,0,22.88-33.4l5.19,1.36Z"/><path class="cls-1" d="M180.56,626.15q-2.66-2.56-3.84-3.84c-.79-.86-1.67-1.85-2.65-3a55.54,55.54,0,0,1-3.7-5q-2.2-3.26-6.94-9.81-5.61-7.95-9.89-14.36t-8.71-12.66q-4.43-6.25-9.6-12.66T123,550.49a120,120,0,0,0-12.84-12.23,32.3,32.3,0,0,0-14.62-7.11A47.47,47.47,0,0,0,87,530q-2.65,0-6.79-.29v32.14q0,13.65.3,23,.29,9.11.59,15.64a20.18,20.18,0,0,0,3.25,10.81q2.36,3.69,9.15,7.53t18.9,4.41v2.85H17.86V623.3A84.45,84.45,0,0,0,32,619.89a23.09,23.09,0,0,0,10.63-6.83A12.66,12.66,0,0,0,45,607.94a52.64,52.64,0,0,0,1.32-7.68c.3-2.84.54-5.87.74-9.1s.3-6.35.3-9.38c0-2.65,0-6.26.14-10.81s.2-9.53.3-14.93S48,545.09,48,539.4v-72q0-5.12-.15-10.38t-.59-9.95a51.86,51.86,0,0,0-1.48-8.53A12,12,0,0,0,43,433a22.42,22.42,0,0,0-9.9-6.12,104.3,104.3,0,0,0-13.43-2.7v-2.84H31.74q10,0,22.73-.14t25.4-.14h20.67q19.78,0,35.14,1.13a72.32,72.32,0,0,1,28,7.68,56.23,56.23,0,0,1,21,17.78q8,11.24,8,28.3a43.49,43.49,0,0,1-4,18.91,50.5,50.5,0,0,1-10.63,14.79,64.64,64.64,0,0,1-15.5,10.95,123.7,123.7,0,0,1-18.61,7.68v.85a37.85,37.85,0,0,1,9.75,7.39,105,105,0,0,1,9.15,10.81q7.68,10.82,16.69,23.32t16.09,22.19q10.92,14.79,21.26,21.61a58.11,58.11,0,0,0,24.22,8.82v2.85ZM151.33,449q-7.4-11.1-21.56-17.63a65.92,65.92,0,0,0-14.91-4.56,92.32,92.32,0,0,0-16.39-1.42c-4.13,0-7.48.1-10,.28s-4.53.39-5.9.58c-.2,1.13-.4,2.13-.59,3a22.25,22.25,0,0,0-.45,3.27c-.1,1.33-.2,3.18-.29,5.55s-.25,5.74-.45,10.1q-.28,9.94-.44,22.46t-.15,24.18V526q12.11,0,22.59-1A95.07,95.07,0,0,0,123,520.91a54.93,54.93,0,0,0,16.24-7.68,45.2,45.2,0,0,0,11.07-11,44.45,44.45,0,0,0,6.35-13.22,52.64,52.64,0,0,0,2.07-14.79A44.63,44.63,0,0,0,151.33,449Z"/><path class="cls-1" d="M236.07,626.15V623.3c2.36-.19,4.73-.42,7.09-.71a29.57,29.57,0,0,0,6.35-1.42,14.17,14.17,0,0,0,4.72-2.7,5.48,5.48,0,0,0,1.92-4.27V516.65a15.67,15.67,0,0,0-.44-4,5.76,5.76,0,0,0-2.51-3.13,52.85,52.85,0,0,0-6.35-3.42q-3.69-1.69-7.82-3.12v-1.71l39.86-12.51h1.77V615.91a6.18,6.18,0,0,0,2.51,4.12,13.23,13.23,0,0,0,4.58,1.85,34.62,34.62,0,0,0,5.76.71,42.91,42.91,0,0,1,6.05.71v2.85Zm42.38-171.36a16.48,16.48,0,0,1-22.59-.14,14.47,14.47,0,0,1-4.73-10.81A14.12,14.12,0,0,1,255.71,433a17.3,17.3,0,0,1,22.74,0A14.15,14.15,0,0,1,283,443.84,14.59,14.59,0,0,1,278.45,454.79Z"/><path class="cls-1" d="M428,601.54a60.45,60.45,0,0,1-13,13.37,57.91,57.91,0,0,1-17.28,9A66.71,66.71,0,0,1,376.92,627a65.09,65.09,0,0,1-26.27-5.26A59.1,59.1,0,0,1,330,607a70.62,70.62,0,0,1-13.43-22.33,76,76,0,0,1-4.87-27.3,68.45,68.45,0,0,1,5-26,69.24,69.24,0,0,1,13.87-21.76,68.32,68.32,0,0,1,21.12-15.08,62.69,62.69,0,0,1,26.72-5.68,81.63,81.63,0,0,1,19.2,2.27,63.33,63.33,0,0,1,16.83,6.54,38.52,38.52,0,0,1,12,10.53,23.9,23.9,0,0,1,4.57,14.5A14,14,0,0,1,426.39,533a15.53,15.53,0,0,1-19.79,1.57,12.85,12.85,0,0,1-5.17-7.11,27.81,27.81,0,0,0,1.48-9.67q0-10.53-5.76-17.5t-18.16-7a32.35,32.35,0,0,0-16.83,4.55,44.43,44.43,0,0,0-13.29,12.23A61.93,61.93,0,0,0,340,528a71.92,71.92,0,0,0-3.24,21.9,74.17,74.17,0,0,0,3.54,23.47,53.13,53.13,0,0,0,10,18.2,44.08,44.08,0,0,0,15.8,11.66A50.79,50.79,0,0,0,387,607.37q18.32,0,28.94-5.83a48,48,0,0,0,17.72-17.2l2.36,1.13A57.3,57.3,0,0,1,428,601.54Z"/><path class="cls-1" d="M524.27,626.15V623a84,84,0,0,0,13.29-1.85c3.54-.85,5.31-2.8,5.31-5.83v-71.1a93.57,93.57,0,0,0-1.18-15.36,34.2,34.2,0,0,0-4.28-12.23,21.52,21.52,0,0,0-8.42-8q-5.31-2.83-13.58-2.84-10.63,0-18,3.7a31.32,31.32,0,0,0-11.81,9.95,19.47,19.47,0,0,0-1.63,3.56,14,14,0,0,0-1,5v87.32a5.26,5.26,0,0,0,1.48,4,9.15,9.15,0,0,0,3.84,2.13,27.11,27.11,0,0,0,5.31,1q3,.28,5.91.85v2.85H440.7V623.3A64.46,64.46,0,0,0,453,621.17q5.46-1.56,5.46-7V452.65a10.1,10.1,0,0,0-.44-3.41,6.75,6.75,0,0,0-2.51-2.56,29.15,29.15,0,0,0-6.35-3.84,84.65,84.65,0,0,1-7.82-4.12V437l39.56-17.35h2.36l-.88,98.69.59.29a52.08,52.08,0,0,1,6.33-9.1A54.52,54.52,0,0,1,500,499.87a69.8,69.8,0,0,1,14.85-7.82,50.29,50.29,0,0,1,18.4-3.27q9.71,0,16.33,3.27a27,27,0,0,1,10.59,9.1,37.44,37.44,0,0,1,5.59,13.79,87.09,87.09,0,0,1,1.62,17.35v83.9a4.23,4.23,0,0,0,1.77,3.41,11.89,11.89,0,0,0,4.43,2.14,50.54,50.54,0,0,0,5.61,1.14q3,.42,5.61.71v2.56Z"/><path class="cls-1" d="M722.7,608.8a35.4,35.4,0,0,1-6.2,9.24,25.46,25.46,0,0,1-9,6.26,31.07,31.07,0,0,1-29.23-3.56q-7.83-5.68-7.83-19.91l-.59-.28a71.59,71.59,0,0,1-6.35,8.25,56.87,56.87,0,0,1-9.45,8.53,48.37,48.37,0,0,1-12.1,6.4,42.51,42.51,0,0,1-14.62,2.42,37.85,37.85,0,0,1-9.6-1.28,23.13,23.13,0,0,1-8.85-4.55,24.72,24.72,0,0,1-6.5-8.39,28.34,28.34,0,0,1-2.51-12.52q0-7.95,6.64-15.36a74,74,0,0,1,16.39-13.37q9.75-6,17.28-10.23t13.14-7.25q5.6-3,9.89-5.12t7.23-3.84v-29.3a9.21,9.21,0,0,0-1-2.7,15.2,15.2,0,0,0-3.54-4.41,24.4,24.4,0,0,0-6.94-4.12,30.37,30.37,0,0,0-11.52-1.85,28.64,28.64,0,0,0-9.3,1.56,33.92,33.92,0,0,0-8.12,4,28.59,28.59,0,0,0-5.61,4.84c-1.38,1.61-2.07,3-2.07,4.12v12.8q0,4-4.28,7.11a15.44,15.44,0,0,1-9.3,3.13,11.29,11.29,0,0,1-8.12-3.27,10.16,10.16,0,0,1-3.4-7.54,11.58,11.58,0,0,1,1.77-6.25,22.36,22.36,0,0,1,4.43-5.12,34,34,0,0,1,5.76-4q3.11-1.69,5.46-3.12,7.68-4.28,15.65-8.25T645.48,495q7.23-2.83,13.29-4.55a38,38,0,0,1,9.89-1.7,28.93,28.93,0,0,1,14.47,3.83,23.71,23.71,0,0,1,9.75,9.53q1.17,2,1.47,7t.3,9.81q0,10.25-.15,18.49t-.15,15.93c0,5.11-.05,10.38-.15,15.78s-.14,11.33-.14,17.78q0,12.79,4.57,16.92a15.19,15.19,0,0,0,10.48,4.12q6.79,0,10-2.7a13.42,13.42,0,0,0,4.43-7h1.78A28.85,28.85,0,0,1,722.7,608.8Zm-52.27-60a119.77,119.77,0,0,1-13.28,7.83q-8,4.13-15.51,9a68.13,68.13,0,0,0-13,10.66,18.85,18.85,0,0,0-5.46,13.23,19.6,19.6,0,0,0,5.31,13.36,17.69,17.69,0,0,0,13.88,6A48.93,48.93,0,0,0,656,607.09a26.16,26.16,0,0,0,10.93-6.54,10.17,10.17,0,0,0,3.54-8Z"/><path class="cls-1" d="M824.87,514.23a11.79,11.79,0,0,1-8.86,4.12,15.51,15.51,0,0,1-7.53-1.56,22.75,22.75,0,0,1-4.87-3.56,31.91,31.91,0,0,0-4.43-3.55,11.7,11.7,0,0,0-6.5-1.56,11.92,11.92,0,0,0-6.94,2.41,32,32,0,0,0-6.35,6.12,47.29,47.29,0,0,0-5.31,8.39c-1.58,3.13-3,6.11-4.14,9v81.91a7,7,0,0,0,3.84,4,23.4,23.4,0,0,0,6.65,2,64.62,64.62,0,0,0,7.67.71,46.35,46.35,0,0,1,6.94.71v2.85H728.9V623.3a39.64,39.64,0,0,0,11.66-2.56q4.88-2,4.88-6.54V518.07a9.77,9.77,0,0,0-.45-3.41,6.53,6.53,0,0,0-2.51-2.56q-2.65-1.43-6.2-3.56a49.4,49.4,0,0,0-7.09-3.55v-1.71l38.69-14.5h1.77l-.59,39.53h.59c1-2.28,2.55-5.59,4.72-10a85.64,85.64,0,0,1,8.27-13.22,51.09,51.09,0,0,1,12.11-11.52A28.12,28.12,0,0,1,811,488.78,19.1,19.1,0,0,1,823.54,493a13.44,13.44,0,0,1,5.16,10.81A14.68,14.68,0,0,1,824.87,514.23Z"/><path class="cls-1" d="M939.44,627h-1.77V598.56h-.3q-8.57,14.22-20.23,21t-29.08,6.83a55.79,55.79,0,0,1-21.12-4.12,50.12,50.12,0,0,1-18.16-12.8,64.2,64.2,0,0,1-12.69-21.33q-4.73-12.66-4.73-29.15a69.4,69.4,0,0,1,5.47-27.59,67.05,67.05,0,0,1,15.35-22.33A70.83,70.83,0,0,1,876,494.18a84,84,0,0,1,30.71-5.4,93,93,0,0,1,16.68,1.42,126.05,126.05,0,0,1,14.33,3.41q-.3-4.26-.45-11.66t-.15-15.07V442.7l-24.21-8.82v-1.7l46.95-12.52h2.36V604.25a69.18,69.18,0,0,0,8.86,4c4.33,1.7,8.37,3.32,12.11,4.83v2Zm-2.07-106.94a56,56,0,0,0-16.54-18.77q-10-7.11-18.6-7.11-11.52,0-19.64,5.12A42.23,42.23,0,0,0,869.16,513a63.19,63.19,0,0,0-7.83,19.63,102.94,102.94,0,0,0-2.51,22.75,86.42,86.42,0,0,0,3,22.61,60.47,60.47,0,0,0,8.86,19.34,46.53,46.53,0,0,0,14.61,13.51,39.22,39.22,0,0,0,20.23,5.12,29.81,29.81,0,0,0,20.82-8,35.8,35.8,0,0,0,11.07-20.19Z"/><path class="cls-1" d="M373.37,832.86a153,153,0,0,0-18.65-41.45,149,149,0,0,0-29.41-33.63,135.42,135.42,0,0,0-38.26-22.57,123.34,123.34,0,0,0-45.2-8.29q-33,0-58.82,14.28A134.26,134.26,0,0,0,139.75,779,177.51,177.51,0,0,0,113,832.17a202.52,202.52,0,0,0-9.32,61,193,193,0,0,0,9.8,62.19q9.8,29,28,50.43a132.34,132.34,0,0,0,44,33.86q25.83,12.43,57.39,12.44a123.92,123.92,0,0,0,46.63-8.75,140.32,140.32,0,0,0,67.43-56,120,120,0,0,0,16-38.46h5.74l-1.44,101.34h-5.73a139.71,139.71,0,0,0-12-14.28c-4.15-4.3-7-6.45-8.61-6.45q-1,0-8.61,4.83t-22,10.6a214.44,214.44,0,0,1-34.92,10.13q-20.56,4.38-47.34,4.38-44.47,0-80.34-12.21t-61-34.54a150.22,150.22,0,0,1-38.5-53.44q-13.4-31.09-13.39-68.4A169.57,169.57,0,0,1,46,872a160.41,160.41,0,0,1,4.3-22.57,185.4,185.4,0,0,1,8.61-25.11A171.2,171.2,0,0,1,73,797.85a166.75,166.75,0,0,1,24.87-29.94,158.3,158.3,0,0,1,34.91-25.1,199,199,0,0,1,45.43-17.27q25.33-6.45,56.91-6.45,28.7,0,50.21,5.06t35.87,11.06q14.36,6,22,11.06t8.61,5.06c.64,0,1.83-.69,3.58-2.07s3.67-3.07,5.74-5.07a92.89,92.89,0,0,0,6.46-6.91,99,99,0,0,0,6.22-8.06h5.26V832.4Z"/><path class="cls-1" d="M685.65,1057.65q-4.3-4.15-6.22-6.22c-1.27-1.39-2.71-3-4.3-4.84a88.52,88.52,0,0,1-6-8.06q-3.58-5.29-11.24-15.89-9.09-12.89-16-23.26t-14.11-20.5q-7.17-10.12-15.54-20.5T592.4,935.12a194.37,194.37,0,0,0-20.81-19.81q-11.24-9.21-23.67-11.51A76,76,0,0,0,534.05,902q-4.31,0-11-.45v52q0,22.1.48,37.3.47,14.76,1,25.34t5.26,17.5q3.81,6,14.82,12.21t30.61,7.14v4.61h-153V1053a137.64,137.64,0,0,0,23-5.53q11-3.67,17.21-11a20.6,20.6,0,0,0,3.83-8.29,83.22,83.22,0,0,0,2.15-12.44q.72-6.91,1.2-14.74c.31-5.22.48-10.29.48-15.2,0-4.3.07-10.14.24-17.51s.31-15.43.47-24.18.24-17.73.24-27V800.62q0-8.29-.24-16.81t-.95-16.13a84.51,84.51,0,0,0-2.39-13.82c-1.13-4.14-2.63-7.14-4.55-9a36.12,36.12,0,0,0-16-9.9A168.89,168.89,0,0,0,425,730.6V726h19.61q16.25,0,36.82-.23t41.13-.23h33.48q32,0,56.91,1.84a117.1,117.1,0,0,1,45.43,12.44,91,91,0,0,1,34,28.79q12.9,18.2,12.91,45.83a70.43,70.43,0,0,1-6.46,30.63A81.54,81.54,0,0,1,681.59,869a105.28,105.28,0,0,1-25.11,17.73,197.62,197.62,0,0,1-30.13,12.44v1.38a61.28,61.28,0,0,1,15.78,12A167.57,167.57,0,0,1,657,930.05q12.43,17.52,27,37.78T710,1003.75q17.69,24,34.43,35T783.69,1053v4.61Zm-47.34-287q-12-18-34.92-28.56a107,107,0,0,0-24.15-7.37,147.86,147.86,0,0,0-26.54-2.31c-6.69,0-12.12.16-16.26.47s-7.34.62-9.56.92q-.5,2.76-1,4.83a36.42,36.42,0,0,0-.72,5.3c-.16,2.15-.32,5.15-.48,9s-.4,9.3-.71,16.35q-.48,16.14-.72,36.4t-.24,39.15v50.67q19.61,0,36.58-1.62a154.42,154.42,0,0,0,32.77-6.67,89.54,89.54,0,0,0,26.3-12.44A73.76,73.76,0,0,0,636.63,857a72.26,72.26,0,0,0,10.28-21.42,85.39,85.39,0,0,0,3.35-24Q650.26,788.65,638.31,770.68Z"/><path class="cls-1" d="M1426.18,1006.52a90.38,90.38,0,0,1-25.82,29.94q-16.5,12.43-39.46,18.42a198.69,198.69,0,0,1-50.21,6q-23.45,0-40.17-2.76a164.55,164.55,0,0,1-27.74-6.68,101.59,101.59,0,0,1-16.5-7.14q-5.51-3.22-6.93-3.23c-1,0-3,1.85-6.22,5.53s-6.06,7.22-8.61,10.59h-4.3l-1.44-91.66h4.78a143.93,143.93,0,0,0,11,24.18,200.79,200.79,0,0,0,14.59,22.11,126.42,126.42,0,0,0,16.74,18.2,82.63,82.63,0,0,0,17,12,139.45,139.45,0,0,0,21.52,8.3,87.29,87.29,0,0,0,25.83,4.14q35.38,0,57.39-18.65t22-50.44q0-12.9-4.31-22.57a53.16,53.16,0,0,0-11.71-16.82,71.52,71.52,0,0,0-17.46-12.2,192.82,192.82,0,0,0-21.52-9.21q-11.47-4.15-20.09-6.91t-16-5.3q-7.41-2.54-15.3-5.07t-18.89-6.68a104.64,104.64,0,0,1-23.91-12.66,95.19,95.19,0,0,1-34-42.84,74.15,74.15,0,0,1-5.26-27.87q0-24.87,9.43-42.84A88.51,88.51,0,0,1,1236,744.42a108.63,108.63,0,0,1,36.72-17.73,163.25,163.25,0,0,1,43.76-5.76q21.51,0,36.82,3.45a151.67,151.67,0,0,1,25.11,7.61,87.38,87.38,0,0,1,14.82,7.59q5,3.46,5.5,3.46,1.44,0,6-5.53t8.37-11h5.26v85.21H1413a181.75,181.75,0,0,0-14.83-30.17,136.94,136.94,0,0,0-21-26.71,101.35,101.35,0,0,0-27.26-19.12,77.26,77.26,0,0,0-34-7.37,92.65,92.65,0,0,0-28,4.14,65.81,65.81,0,0,0-23,12.44,57.32,57.32,0,0,0-15.31,20.5q-5.51,12.21-5.5,27.87,0,24.42,15.27,39.15t39.59,23.49q9.54,3.69,17.89,6.45c5.56,1.84,11,3.62,16.46,5.3s10.89,3.45,16.45,5.3,11.38,3.84,17.42,6q32.45,11.51,50.33,33.39t17.89,54.58Q1435.51,989,1426.18,1006.52Z"/><path class="cls-1" d="M1715.51,1006.52a90.38,90.38,0,0,1-25.82,29.94q-16.5,12.43-39.46,18.42a198.69,198.69,0,0,1-50.21,6q-23.44,0-40.17-2.76a164.55,164.55,0,0,1-27.74-6.68,101.59,101.59,0,0,1-16.5-7.14q-5.5-3.22-6.93-3.23c-1,0-3,1.85-6.22,5.53s-6.06,7.22-8.61,10.59h-4.3l-1.44-91.66h4.78a143.93,143.93,0,0,0,11,24.18,200.79,200.79,0,0,0,14.59,22.11,126.42,126.42,0,0,0,16.74,18.2,82.63,82.63,0,0,0,17,12,139.45,139.45,0,0,0,21.52,8.3,87.29,87.29,0,0,0,25.83,4.14q35.39,0,57.39-18.65t22-50.44q0-12.9-4.31-22.57a53.16,53.16,0,0,0-11.71-16.82,71.52,71.52,0,0,0-17.46-12.2,192.82,192.82,0,0,0-21.52-9.21q-11.48-4.15-20.08-6.91t-16-5.3q-7.41-2.54-15.3-5.07t-18.89-6.68a104.64,104.64,0,0,1-23.91-12.66,95.19,95.19,0,0,1-34-42.84,74.15,74.15,0,0,1-5.26-27.87q0-24.87,9.43-42.84a88.51,88.51,0,0,1,25.35-29.94A108.63,108.63,0,0,1,1562,726.69a163.31,163.31,0,0,1,43.76-5.76q21.51,0,36.82,3.45a151.67,151.67,0,0,1,25.11,7.61,87.38,87.38,0,0,1,14.82,7.59q5,3.46,5.5,3.46,1.44,0,6-5.53t8.37-11h5.26v85.21h-5.26a181.75,181.75,0,0,0-14.83-30.17,136.57,136.57,0,0,0-21-26.71,101.35,101.35,0,0,0-27.26-19.12,77.26,77.26,0,0,0-34-7.37,92.65,92.65,0,0,0-28,4.14,65.81,65.81,0,0,0-23,12.44,57.32,57.32,0,0,0-15.31,20.5q-5.51,12.21-5.5,27.87,0,24.42,15.27,39.15t39.6,23.49q9.52,3.69,17.88,6.45c5.56,1.84,11,3.62,16.46,5.3s10.89,3.45,16.45,5.3,11.38,3.84,17.42,6q32.45,11.51,50.33,33.39t17.89,54.58Q1724.84,989,1715.51,1006.52Z"/><ellipse class="cls-2" cx="966.33" cy="883.05" rx="183.19" ry="176.44"/><rect class="cls-2" x="1123.81" y="439.84" width="21.01" height="482.93"/><rect class="cls-2" x="1123.81" y="419.66" width="593.48" height="189.13"/></g></g></svg>